name analog
datacolumns 19
datarows 42
range 0.0 0.0205
endheader
time	ground_force_vx	ground_force_vy	ground_force_vz	ground_force_px	ground_force_py	ground_force_pz	l_ground_force_vx	l_ground_force_vy	l_ground_force_vz	l_ground_force_px	l_ground_force_py	l_ground_force_pz	ground_torque_x	ground_torque_y	ground_torque_z	l_ground_torque_x	l_ground_torque_y	l_ground_torque_z
0.0	-0.0	-0.0	-0.0	11.321348190307615	98.29408264160156	-799.3126220703125	-0.0	-0.0	-0.0	-0.0	-0.0	-0.0	-0.0	-0.0	-0.0	-0.0	-0.0	-0.0
0.0005	-0.0	-0.0	-0.0	11.159663200378418	98.92640686035156	-800.1405029296875	-0.0	-0.0	-0.0	-0.0	-0.0	-0.0	-0.0	-0.0	-0.0	-0.0	-0.0	-0.0
0.001	-0.0	-0.0	-0.0	11.499842643737791	99.4695281982422	-796.77392578125	9.47845458984375	7.457489013671875	-25.598777770996094	-0.0	-0.0	-0.0	-0.0	-0.0	-0.0	6306.9248046875	-558.2333984375	2128.73583984375
0.0015	-0.0	-0.0	-0.0	11.636855125427246	99.8177719116211	-795.1971435546875	8.787882804870605	7.170622825622559	-36.14804458618164	-0.0	-0.0	-0.0	-0.0	-0.0	-0.0	9044.890625	-784.67431640625	1552.445556640625
0.002	-0.0	-0.0	-0.0	10.858930587768556	100.30467224121094	-788.8467407226562	4.230861663818359	7.636899948120117	-34.98036575317383	-0.0	-0.0	-0.0	-0.0	-0.0	-0.0	8700.626953125	-1147.86767578125	169.0836181640625
0.0025	-0.0	-0.0	-0.0	10.721689224243164	100.51447296142578	-785.3746337890625	-0.3073679804801941	8.335082054138184	-38.12244415283203	-0.0	-0.0	-0.0	-0.0	-0.0	-0.0	9325.9755859375	-1588.7791748046875	-928.7177124023438
0.003	-0.0	-0.0	-0.0	10.462194442749023	99.9397201538086	-779.691650390625	-2.6054975986480717	10.3827486038208	-44.18724822998047	-0.0	-0.0	-0.0	-0.0	-0.0	-0.0	11779.3193359375	-2475.911865234375	-1919.1309814453125
0.0035	-0.0	-0.0	-0.0	10.25920867919922	99.79347229003906	-771.95458984375	-1.0795751810073853	11.30517578125	-53.232120513916016	-0.0	-0.0	-0.0	-0.0	-0.0	-0.0	14165.0107421875	-3441.633544921875	-1599.3116455078125
0.004	-0.0	-0.0	-0.0	10.26732349395752	99.17781066894533	-763.5108032226562	1.4275213479995728	11.980218887329102	-63.95888900756836	-0.0	-0.0	-0.0	-0.0	-0.0	-0.0	16709.845703125	-4236.28076171875	-1149.804931640625
0.0045000000000000005	-0.0	-0.0	-0.0	10.25920867919922	98.60244750976562	-758.6957397460938	3.7501933574676514	12.597689628601074	-72.11682891845703	-0.0	-0.0	-0.0	-0.0	-0.0	-0.0	19268.1171875	-4967.6015625	-789.635986328125
0.005	-0.0	-0.0	-0.0	9.577735900878906	97.97845458984376	-751.9863891601562	3.693506240844727	10.68692398071289	-81.51146697998047	-0.0	-0.0	-0.0	-0.0	-0.0	-0.0	21588.97265625	-5830.27490234375	-914.2439575195312
0.0055	-0.0	-0.0	-0.0	9.585606575012209	97.54173278808594	-743.3485107421875	2.104907512664795	7.386960983276367	-88.49378204345703	-0.0	-0.0	-0.0	-0.0	-0.0	-0.0	23378.591796875	-6556.21484375	-1107.656005859375
0.006	-0.0	-0.0	-0.0	9.610795021057127	96.43910217285156	-736.6070556640625	1.0971407890319824	5.645161151885986	-95.0007781982422	-0.0	-0.0	-0.0	-0.0	-0.0	-0.0	24799.765625	-7038.49072265625	-1354.2921142578125
0.006500000000000001	-0.0	-0.0	-0.0	9.01821517944336	95.97754669189452	-729.928466796875	0.4515421986579895	2.698205947875977	-102.1409149169922	-0.0	-0.0	-0.0	-0.0	-0.0	-0.0	26713.892578125	-7759.880859375	-1028.9405517578125
0.007	-0.0	-0.0	-0.0	8.905216217041016	95.2883071899414	-725.180908203125	0.6845918893814087	0.7553093433380127	-110.07665252685548	-0.0	-0.0	-0.0	-0.0	-0.0	-0.0	28513.583984375	-8675.6630859375	-864.8966064453125
0.0075	-0.0	-0.0	-0.0	8.718987464904785	94.64862060546876	-716.79931640625	1.5318307876586914	-1.364230751991272	-118.26248931884766	-0.0	-0.0	-0.0	-0.0	-0.0	-0.0	30922.3203125	-9314.349609375	-560.2268676757812
0.008	-0.0	-0.0	-0.0	8.322919845581055	93.5790786743164	-711.3153686523438	1.8629264831542969	-3.452404499053955	-125.36908721923828	-0.0	-0.0	-0.0	-0.0	-0.0	-0.0	33053.9453125	-10351.6728515625	-220.39779663085935
0.0085	-0.0	-0.0	-0.0	7.462394714355469	92.8426284790039	-702.902587890625	1.9437800645828247	-5.1461262702941895	-135.1835174560547	-0.0	-0.0	-0.0	-0.0	-0.0	-0.0	34865.04296875	-11227.5263671875	-59.25278091430664
0.009000000000000001	-0.0	-0.0	-0.0	6.8883490562438965	92.11417388916016	-695.994384765625	2.144700765609741	-6.816343307495117	-141.6526641845703	-0.0	-0.0	-0.0	-0.0	-0.0	-0.0	36913.30859375	-12251.4970703125	171.65162658691406
0.0095	-0.0	-0.0	-0.0	6.683028697967529	91.26177978515624	-687.9330444335938	2.95863676071167	-9.016572952270508	-149.30250549316406	-0.0	-0.0	-0.0	-0.0	-0.0	-0.0	38846.09765625	-13273.986328125	682.0869140625
0.01	-0.0	-0.0	-0.0	5.806406497955322	90.43649291992188	-680.9614868164062	3.371009826660156	-11.294103622436523	-157.30145263671875	-0.0	-0.0	-0.0	-0.0	-0.0	-0.0	40639.6171875	-13707.3330078125	1040.36474609375
0.0105	-0.0	-0.0	-0.0	5.341912746429443	89.30098724365234	-672.4850463867188	3.87238359451294	-14.369624137878418	-162.53787231445312	-0.0	-0.0	-0.0	-0.0	-0.0	-0.0	42305.8828125	-14312.966796875	1528.7220458984375
0.011	-0.0	-0.0	-0.0	4.162250518798828	89.01065826416016	-664.0888061523438	3.5986576080322266	-17.468339920043945	-169.93003845214844	-0.0	-0.0	-0.0	-0.0	-0.0	-0.0	44339.46875	-15246.80078125	1756.02197265625
0.0115	-0.0	-0.0	-0.0	3.479209899902344	87.76296997070312	-656.6430053710938	3.4750418663024902	-20.420766830444336	-179.14492797851562	-0.0	-0.0	-0.0	-0.0	-0.0	-0.0	45852.37109375	-16022.53515625	2167.8828125
0.012	-0.0	-0.0	-0.0	2.854736328125	87.47299194335938	-645.99609375	3.2012126445770264	-23.872398376464844	-188.0426788330078	-0.0	-0.0	-0.0	-0.0	-0.0	-0.0	47688.48046875	-17004.201171875	2560.068115234375
0.0125	-0.0	-0.0	-0.0	1.7101044654846191	86.76774597167969	-639.7228393554688	3.4673097133636475	-28.20484161376953	-194.44757080078125	-0.0	-0.0	-0.0	-0.0	-0.0	-0.0	49637.6484375	-17749.03125	3060.8486328125
0.013000000000000001	-0.0	-0.0	-0.0	1.2629029750823977	85.80250549316406	-629.4517211914062	3.637142181396485	-32.062801361083984	-201.2303771972656	-0.0	-0.0	-0.0	-0.0	-0.0	-0.0	51259.00390625	-18450.80859375	3448.115234375
0.0135	-0.0	-0.0	-0.0	-0.0817214697599411	84.82969665527344	-620.0060424804688	3.814563751220703	-35.91105651855469	-207.893310546875	-0.0	-0.0	-0.0	-0.0	-0.0	-0.0	53126.828125	-19413.28515625	4005.786865234375
0.014	-0.0	-0.0	-0.0	-0.4609577655792236	84.28758239746094	-607.734130859375	4.191876411437988	-39.1787109375	-216.88211059570312	-0.0	-0.0	-0.0	-0.0	-0.0	-0.0	55007.92578125	-20029.962890625	4353.64404296875
0.0145	-0.0	-0.0	-0.0	-1.5388580560684204	83.41121673583984	-601.3772583007812	4.354292392730713	-42.00482177734375	-223.0231170654297	-0.0	-0.0	-0.0	-0.0	-0.0	-0.0	56709.16015625	-20737.015625	4568.17724609375
0.015	-0.0	-0.0	-0.0	-2.185392379760742	82.31219482421875	-593.0789794921875	3.969702482223511	-44.19781875610352	-230.67393493652344	-0.0	-0.0	-0.0	-0.0	-0.0	-0.0	58557.69921875	-21555.96875	4755.2294921875
0.0155	-0.0	-0.0	-0.0	-2.794940233230591	81.33197021484375	-584.7203979492188	4.221160888671875	-45.78742980957031	-236.6374664306641	-0.0	-0.0	-0.0	-0.0	-0.0	-0.0	60729.2265625	-22286.998046875	5024.37255859375
0.016	-0.0	-0.0	-0.0	-4.200225353240967	80.12091064453125	-574.4205932617188	3.541062355041504	-47.44342422485352	-243.7948303222656	-0.0	-0.0	-0.0	-0.0	-0.0	-0.0	61986.56640625	-22812.296875	4909.77001953125
0.0165	-0.0	-0.0	-0.0	-4.646241188049316	79.43872833251953	-566.2984619140625	3.164256811141968	-48.42948532104492	-249.75885009765625	-0.0	-0.0	-0.0	-0.0	-0.0	-0.0	63481.1484375	-23335.76953125	4891.8720703125
0.017	-0.0	-0.0	-0.0	-5.552826404571533	78.1456069946289	-557.7081909179688	2.846041679382324	-48.35555267333984	-255.60769653320312	-0.0	-0.0	-0.0	-0.0	-0.0	-0.0	65115.25	-24040.306640625	4699.00439453125
0.0175	-0.0	-0.0	-0.0	-6.883673191070557	76.39920043945312	-548.4025268554688	1.810567855834961	-47.58367538452149	-261.543212890625	-0.0	-0.0	-0.0	-0.0	-0.0	-0.0	66440.3984375	-24352.56640625	4468.4716796875
0.018000000000000002	-0.0	-0.0	-0.0	-7.597284317016602	75.38994598388672	-542.0172729492188	1.493614912033081	-47.34762573242188	-266.04608154296875	-0.0	-0.0	-0.0	-0.0	-0.0	-0.0	68025.4921875	-25110.810546875	4421.70849609375
0.0185	-0.0	-0.0	-0.0	-8.325213432312012	74.2918472290039	-535.2223510742188	1.4864894151687622	-46.12541961669922	-272.6307678222656	-0.0	-0.0	-0.0	-0.0	-0.0	-0.0	69723.3203125	-25677.025390625	4209.63671875
0.019	-0.0	-0.0	-0.0	-9.417033195495604	72.41313171386719	-522.8617553710938	0.8799359202384949	-45.98704147338867	-277.74493408203125	-0.0	-0.0	-0.0	-0.0	-0.0	-0.0	71242.9140625	-25867.935546875	3899.8017578125
0.0195	-0.0	-0.0	-0.0	-10.51974391937256	71.3043212890625	-515.446044921875	0.7025505900382996	-45.86333847045898	-283.5953674316406	-0.0	-0.0	-0.0	-0.0	-0.0	-0.0	73006.546875	-26725.234375	3644.685546875
0.02	-0.0	-0.0	-0.0	-10.700770378112791	69.73973083496094	-507.7330017089844	0.3406442403793335	-45.17829513549805	-287.81268310546875	-0.0	-0.0	-0.0	-0.0	-0.0	-0.0	74643.0859375	-27511.935546875	3543.70361328125
0.0205	-0.0	-0.0	-0.0	-12.139654159545898	68.28091430664062	-501.0789184570313	0.0745827257633209	-45.03702545166016	-295.7592468261719	-0.0	-0.0	-0.0	-0.0	-0.0	-0.0	76666.1953125	-28022.572265625	3395.25390625
